<svg width="20" height="28" viewBox="0 0 20 28" fill="none" xmlns="http://www.w3.org/2000/svg">
<path d="M7.5 5.6665H15V7.33317H7.5V5.6665Z" fill="#514A7E"/>
<path d="M7.5 9H15V10.6667H7.5V9Z" fill="#514A7E"/>
<path d="M7.5 12.333H15V13.9997H7.5V12.333Z" fill="#514A7E"/>
<path d="M7.5 15.667H15V17.3337H7.5V15.667Z" fill="#514A7E"/>
<path d="M7.5 19H15V20.6667H7.5V19Z" fill="#514A7E"/>
<path d="M4.16699 5.6665H5.83366V7.33317H4.16699V5.6665Z" fill="#514A7E"/>
<path d="M4.16699 9H5.83366V10.6667H4.16699V9Z" fill="#514A7E"/>
<path d="M4.16699 12.333H5.83366V13.9997H4.16699V12.333Z" fill="#514A7E"/>
<path d="M4.16699 15.667H5.83366V17.3337H4.16699V15.667Z" fill="#514A7E"/>
<path d="M4.16699 19H5.83366V20.6667H4.16699V19Z" fill="#514A7E"/>
<path d="M18.3333 0.666992H1.66667C1.22464 0.666992 0.800716 0.842587 0.488155 1.15515C0.175595 1.46771 0 1.89163 0 2.33366V25.667C0 26.109 0.175595 26.5329 0.488155 26.8455C0.800716 27.1581 1.22464 27.3337 1.66667 27.3337H18.3333C18.7754 27.3337 19.1993 27.1581 19.5118 26.8455C19.8244 26.5329 20 26.109 20 25.667V2.33366C20 1.89163 19.8244 1.46771 19.5118 1.15515C19.1993 0.842587 18.7754 0.666992 18.3333 0.666992ZM18.3333 25.667H1.66667V2.33366H18.3333V25.667Z" fill="#514A7E"/>
</svg>
