<svg width="28" height="28" viewBox="0 0 28 28" fill="none" xmlns="http://www.w3.org/2000/svg">
<path d="M17.0007 23.1668C17.0007 22.9458 16.9129 22.7339 16.7566 22.5776C16.6003 22.4213 16.3883 22.3335 16.1673 22.3335H11.1673C10.9463 22.3335 10.7343 22.4213 10.5781 22.5776C10.4218 22.7339 10.334 22.9458 10.334 23.1668C10.334 23.3878 10.4218 23.5998 10.5781 23.7561C10.7343 23.9124 10.9463 24.0002 11.1673 24.0002H16.1673C16.3883 24.0002 16.6003 23.9124 16.7566 23.7561C16.9129 23.5998 17.0007 23.3878 17.0007 23.1668Z" fill="#514A7E"/>
<path d="M17.7835 19H12.7835C12.5625 19 12.3506 19.0878 12.1943 19.2441C12.038 19.4004 11.9502 19.6123 11.9502 19.8333C11.9502 20.0543 12.038 20.2663 12.1943 20.4226C12.3506 20.5789 12.5625 20.6667 12.7835 20.6667H17.7835C18.0045 20.6667 18.2165 20.5789 18.3728 20.4226C18.5291 20.2663 18.6169 20.0543 18.6169 19.8333C18.6169 19.6123 18.5291 19.4004 18.3728 19.2441C18.2165 19.0878 18.0045 19 17.7835 19Z" fill="#514A7E"/>
<path d="M17.3333 25.6665H12.3333C12.1123 25.6665 11.9004 25.7543 11.7441 25.9106C11.5878 26.0669 11.5 26.2788 11.5 26.4998C11.5 26.7209 11.5878 26.9328 11.7441 27.0891C11.9004 27.2454 12.1123 27.3332 12.3333 27.3332H17.3333C17.5543 27.3332 17.7663 27.2454 17.9226 27.0891C18.0789 26.9328 18.1667 26.7209 18.1667 26.4998C18.1667 26.2788 18.0789 26.0669 17.9226 25.9106C17.7663 25.7543 17.5543 25.6665 17.3333 25.6665Z" fill="#514A7E"/>
<path d="M26.2497 25.6665H20.4163C20.1953 25.6665 19.9834 25.7543 19.8271 25.9106C19.6708 26.0669 19.583 26.2788 19.583 26.4998C19.583 26.7209 19.6708 26.9328 19.8271 27.0891C19.9834 27.2454 20.1953 27.3332 20.4163 27.3332H26.2497C26.4707 27.3332 26.6827 27.2454 26.8389 27.0891C26.9952 26.9328 27.083 26.7209 27.083 26.4998C27.083 26.2788 26.9952 26.0669 26.8389 25.9106C26.6827 25.7543 26.4707 25.6665 26.2497 25.6665Z" fill="#514A7E"/>
<path d="M27.0827 22.3335H21.2493C21.0283 22.3335 20.8164 22.4213 20.6601 22.5776C20.5038 22.7339 20.416 22.9458 20.416 23.1668C20.416 23.3878 20.5038 23.5998 20.6601 23.7561C20.8164 23.9124 21.0283 24.0002 21.2493 24.0002H27.0827C27.3037 24.0002 27.5157 23.9124 27.6719 23.7561C27.8282 23.5998 27.916 23.3878 27.916 23.1668C27.916 22.9458 27.8282 22.7339 27.6719 22.5776C27.5157 22.4213 27.3037 22.3335 27.0827 22.3335Z" fill="#514A7E"/>
<path d="M27.1162 20.667C26.872 17.7328 26.0746 14.8713 24.7662 12.2337C23.5128 9.8501 21.7069 7.80132 19.4995 6.25866L21.4995 1.85033C21.564 1.71858 21.5926 1.57215 21.5823 1.42582C21.5721 1.2795 21.5234 1.13848 21.4412 1.01699C21.3654 0.910426 21.2655 0.823211 21.1497 0.762406C21.0338 0.701602 20.9053 0.668917 20.7745 0.666995H7.16621C7.02612 0.666648 6.88821 0.701623 6.76521 0.768689C6.64222 0.835754 6.53811 0.932744 6.46253 1.05069C6.38694 1.16864 6.34231 1.30374 6.33276 1.44351C6.3232 1.58327 6.34904 1.72319 6.40788 1.85033L8.44955 6.27533C6.25828 7.81944 4.4647 9.86149 3.21621 12.2337C1.42455 15.567 0.866214 19.642 0.716214 22.467C0.691653 22.8806 0.753017 23.2947 0.896441 23.6834C1.03986 24.0721 1.26224 24.4268 1.54955 24.7253C1.85151 25.0186 2.20906 25.2486 2.60118 25.4017C2.9933 25.5548 3.41207 25.628 3.83288 25.617H8.99955V24.0003H3.76621C3.57762 23.9997 3.39109 23.9611 3.21781 23.8866C3.04454 23.8121 2.8881 23.7034 2.75788 23.567C2.62747 23.4317 2.52675 23.2706 2.46218 23.0941C2.3976 22.9176 2.37059 22.7295 2.38288 22.542C2.49955 20.367 2.95788 16.2253 4.68288 13.0003C5.89891 10.6896 7.69707 8.7363 9.89955 7.33366H10.7329C10.1682 8.11488 9.6479 8.92727 9.17455 9.76699C8.69244 10.6605 8.28279 11.5913 7.94955 12.5503L9.09121 13.317C9.42851 12.322 9.84368 11.3551 10.3329 10.4253C10.9336 9.34422 11.6161 8.31064 12.3745 7.33366H13.2079C13.7669 8.66982 14.1615 10.069 14.3829 11.5003C14.5639 12.5629 14.6531 13.6391 14.6495 14.717L15.9662 13.792C15.9295 12.9539 15.8405 12.119 15.6995 11.292C15.476 9.94048 15.1186 8.61453 14.6329 7.33366H15.2829L16.0412 5.66699H10.0079L8.46621 2.33366H19.4745L17.3912 6.89199C17.7483 7.08328 18.0909 7.30053 18.4162 7.54199C20.458 8.95066 22.1325 10.8281 23.2995 13.017C24.4684 15.4172 25.194 18.0088 25.4412 20.667H27.1162Z" fill="#514A7E"/>
</svg>
