<svg width="16" height="16" viewBox="0 0 16 16" fill="none" xmlns="http://www.w3.org/2000/svg">
<path d="M3.21001 15.3C2.38311 15.3001 1.58934 14.9751 1.00001 14.395L0.935009 14.33C0.638911 14.0411 0.40364 13.6958 0.24306 13.3146C0.0824804 12.9333 -0.000159847 12.5237 9.23908e-06 12.11C-0.00103717 11.6621 0.0868129 11.2185 0.258469 10.8048C0.430125 10.3911 0.682173 10.0156 1.00001 9.70004L8.75001 2.03504C9.53744 1.21517 10.6154 0.737413 11.7517 0.70468C12.888 0.671948 13.9917 1.08686 14.825 1.86004C15.2008 2.23493 15.4983 2.68089 15.7 3.17191C15.9018 3.66294 16.0037 4.1892 16 4.72004C15.9956 5.31289 15.874 5.89902 15.6423 6.44475C15.4106 6.99048 15.0734 7.48505 14.65 7.90004L7.68501 14.8C7.64171 14.8583 7.58626 14.9064 7.5225 14.941C7.45873 14.9757 7.38819 14.9961 7.31577 15.0007C7.24335 15.0054 7.17079 14.9942 7.10312 14.968C7.03545 14.9418 6.97429 14.9011 6.92391 14.8489C6.87352 14.7967 6.83511 14.7341 6.81133 14.6655C6.78756 14.597 6.77899 14.5241 6.78623 14.4518C6.79348 14.3796 6.81635 14.3099 6.85326 14.2474C6.89018 14.1849 6.94025 14.1312 7.00001 14.09L13.945 7.19004C14.2748 6.86808 14.5378 6.48414 14.7189 6.06026C14.8999 5.63639 14.9955 5.18093 15 4.72004C15.0036 4.32116 14.9277 3.92557 14.7766 3.5564C14.6255 3.18723 14.4023 2.85191 14.12 2.57004C13.4739 1.98147 12.6226 1.67005 11.7492 1.70278C10.8759 1.7355 10.0502 2.10977 9.45001 2.74504L1.72501 10.41C1.49736 10.6311 1.31601 10.8952 1.19154 11.1871C1.06706 11.479 1.00195 11.7927 1.00001 12.11C0.998941 12.3887 1.05319 12.6647 1.15962 12.9222C1.26605 13.1797 1.42254 13.4135 1.62001 13.61L1.68501 13.675C2.13238 14.087 2.72364 14.3068 3.33148 14.2872C3.93933 14.2676 4.51516 14.01 4.93501 13.57L11.61 6.97004C11.7362 6.8424 11.8358 6.69088 11.9027 6.52432C11.9697 6.35777 12.0028 6.17953 12 6.00004C12.0011 5.84414 11.9712 5.68958 11.9119 5.54536C11.8527 5.40115 11.7654 5.27016 11.655 5.16004C11.4025 4.92849 11.0691 4.80553 10.7267 4.81769C10.3843 4.82985 10.0604 4.97616 9.82501 5.22504L5.22501 9.78504C5.13086 9.87853 5.00342 9.93078 4.87074 9.93032C4.73806 9.92985 4.611 9.87669 4.51751 9.78254C4.42402 9.68839 4.37176 9.56095 4.37223 9.42827C4.3727 9.29559 4.42586 9.16853 4.52001 9.07504L9.14001 4.50004C9.56349 4.0662 10.1406 3.81623 10.7467 3.80407C11.3528 3.79191 11.9395 4.01853 12.38 4.43504C12.5826 4.64129 12.7419 4.88602 12.8483 5.15481C12.9548 5.4236 13.0064 5.71099 13 6.00004C12.9995 6.3113 12.9368 6.61932 12.8158 6.90608C12.6947 7.19283 12.5177 7.45256 12.295 7.67004L5.64001 14.29C4.99496 14.9341 4.12153 15.2971 3.21001 15.3Z" fill="#514A7E"/>
</svg>
