<svg width="13" height="15" viewBox="0 0 13 15" fill="none" xmlns="http://www.w3.org/2000/svg">
<path d="M10.3082 14.1667H2.69153C2.5312 14.1629 2.37318 14.1276 2.22651 14.0627C2.07983 13.9978 1.94738 13.9047 1.83671 13.7886C1.72605 13.6725 1.63934 13.5358 1.58154 13.3862C1.52375 13.2366 1.49599 13.077 1.49987 12.9167V4.6792H2.3332V12.9167C2.32922 12.9676 2.33535 13.0188 2.35123 13.0674C2.36711 13.1159 2.39243 13.1608 2.42573 13.1995C2.45903 13.2383 2.49966 13.27 2.54527 13.293C2.59089 13.316 2.6406 13.3297 2.69153 13.3334H10.3082C10.3591 13.3297 10.4088 13.316 10.4545 13.293C10.5001 13.27 10.5407 13.2383 10.574 13.1995C10.6073 13.1608 10.6326 13.1159 10.6485 13.0674C10.6644 13.0188 10.6705 12.9676 10.6665 12.9167V4.6792H11.4999V12.9167C11.5037 13.077 11.476 13.2366 11.4182 13.3862C11.3604 13.5358 11.2737 13.6725 11.163 13.7886C11.0524 13.9047 10.9199 13.9978 10.7732 14.0627C10.6266 14.1276 10.4685 14.1629 10.3082 14.1667Z" fill="#121212"/>
<path d="M11.8248 3.74996H1.08317C0.972664 3.74996 0.866683 3.70606 0.788543 3.62792C0.710403 3.54978 0.666504 3.4438 0.666504 3.33329C0.666504 3.22279 0.710403 3.11681 0.788543 3.03866C0.866683 2.96052 0.972664 2.91663 1.08317 2.91663H11.8248C11.9353 2.91663 12.0413 2.96052 12.1195 3.03866C12.1976 3.11681 12.2415 3.22279 12.2415 3.33329C12.2415 3.4438 12.1976 3.54978 12.1195 3.62792C12.0413 3.70606 11.9353 3.74996 11.8248 3.74996Z" fill="#121212"/>
<path d="M7.75 5.41663H8.58333V11.6666H7.75V5.41663Z" fill="#121212"/>
<path d="M4.4165 5.41663H5.24984V11.6666H4.4165V5.41663Z" fill="#121212"/>
<path d="M8.58317 2.44171H7.79151V1.66671H5.20817V2.44171H4.4165V1.66671C4.41624 1.45273 4.49829 1.24684 4.64567 1.09171C4.79305 0.936571 4.99446 0.844073 5.20817 0.833374H7.79151C8.00522 0.844073 8.20663 0.936571 8.35401 1.09171C8.50138 1.24684 8.58344 1.45273 8.58317 1.66671V2.44171Z" fill="#121212"/>
</svg>
