<svg width="18" height="15" viewBox="0 0 18 15" fill="none" xmlns="http://www.w3.org/2000/svg">
<path fill-rule="evenodd" clip-rule="evenodd" d="M5.19066 1.30951C5.07068 1.30951 4.95562 1.35717 4.87078 1.44201C4.78594 1.52685 4.73828 1.64191 4.73828 1.76189V3.66665C4.73828 3.78663 4.78594 3.9017 4.87078 3.98653C4.95562 4.07137 5.07068 4.11903 5.19066 4.11903C5.31064 4.11903 5.42571 4.07137 5.51054 3.98653C5.59538 3.9017 5.64304 3.78663 5.64304 3.66665V1.76189C5.64304 1.64191 5.59538 1.52685 5.51054 1.44201C5.42571 1.35717 5.31064 1.30951 5.19066 1.30951ZM5.19066 0.309509C5.57586 0.309509 5.94528 0.462528 6.21765 0.734902C6.49003 1.00728 6.64304 1.37669 6.64304 1.76189V3.66665C6.64304 4.05185 6.49003 4.42127 6.21765 4.69364C5.94528 4.96601 5.57586 5.11903 5.19066 5.11903C4.80547 5.11903 4.43605 4.96601 4.16367 4.69364C3.8913 4.42127 3.73828 4.05185 3.73828 3.66665V1.76189C3.73828 1.37669 3.8913 1.00728 4.16367 0.734902C4.43605 0.462528 4.80547 0.309509 5.19066 0.309509Z" fill="#FFFDF5"/>
<path fill-rule="evenodd" clip-rule="evenodd" d="M5.64258 2.71429C5.64258 2.43815 5.86644 2.21429 6.14258 2.21429H16.6188C16.8949 2.21429 17.1188 2.43815 17.1188 2.71429C17.1188 2.99044 16.8949 3.21429 16.6188 3.21429H6.14258C5.86644 3.21429 5.64258 2.99044 5.64258 2.71429Z" fill="#FFFDF5"/>
<path fill-rule="evenodd" clip-rule="evenodd" d="M0.880859 2.71429C0.880859 2.43815 1.10472 2.21429 1.38086 2.21429H4.238C4.51414 2.21429 4.738 2.43815 4.738 2.71429C4.738 2.99044 4.51414 3.21429 4.238 3.21429H1.38086C1.10472 3.21429 0.880859 2.99044 0.880859 2.71429Z" fill="#FFFDF5"/>
<path fill-rule="evenodd" clip-rule="evenodd" d="M5.19066 10.8333C5.07068 10.8333 4.95562 10.881 4.87078 10.9658C4.78594 11.0507 4.73828 11.1657 4.73828 11.2857V13.1905C4.73828 13.3104 4.78594 13.4255 4.87078 13.5103C4.95562 13.5952 5.07068 13.6428 5.19066 13.6428C5.31064 13.6428 5.42571 13.5952 5.51054 13.5103C5.59538 13.4255 5.64304 13.3104 5.64304 13.1905V11.2857C5.64304 11.1657 5.59538 11.0507 5.51054 10.9658C5.42571 10.881 5.31064 10.8333 5.19066 10.8333ZM4.16367 10.2587C4.43605 9.98633 4.80547 9.83331 5.19066 9.83331C5.57586 9.83331 5.94528 9.98633 6.21765 10.2587C6.49002 10.5311 6.64304 10.9005 6.64304 11.2857V13.1905C6.64304 13.5757 6.49003 13.9451 6.21765 14.2174C5.94528 14.4898 5.57586 14.6428 5.19066 14.6428C4.80547 14.6428 4.43605 14.4898 4.16367 14.2174C3.8913 13.9451 3.73828 13.5757 3.73828 13.1905V11.2857C3.73828 10.9005 3.8913 10.5311 4.16367 10.2587Z" fill="#FFFDF5"/>
<path fill-rule="evenodd" clip-rule="evenodd" d="M5.64258 12.2381C5.64258 11.962 5.86644 11.7381 6.14258 11.7381H16.6188C16.8949 11.7381 17.1188 11.962 17.1188 12.2381C17.1188 12.5142 16.8949 12.7381 16.6188 12.7381H6.14258C5.86644 12.7381 5.64258 12.5142 5.64258 12.2381Z" fill="#FFFDF5"/>
<path fill-rule="evenodd" clip-rule="evenodd" d="M0.880859 12.2381C0.880859 11.962 1.10472 11.7381 1.38086 11.7381H4.238C4.51414 11.7381 4.738 11.962 4.738 12.2381C4.738 12.5142 4.51414 12.7381 4.238 12.7381H1.38086C1.10472 12.7381 0.880859 12.5142 0.880859 12.2381Z" fill="#FFFDF5"/>
<path fill-rule="evenodd" clip-rule="evenodd" d="M12.8098 6.07141C12.6898 6.07141 12.5748 6.11907 12.4899 6.20391C12.4051 6.28875 12.3574 6.40381 12.3574 6.52379V8.42855C12.3574 8.54853 12.4051 8.6636 12.4899 8.74844C12.5748 8.83327 12.6898 8.88094 12.8098 8.88094C12.9298 8.88094 13.0448 8.83327 13.1297 8.74844C13.2145 8.6636 13.2622 8.54853 13.2622 8.42855V6.52379C13.2622 6.40381 13.2145 6.28875 13.1297 6.20391C13.0448 6.11907 12.9298 6.07141 12.8098 6.07141ZM12.8098 5.07141C13.195 5.07141 13.5644 5.22443 13.8368 5.4968C14.1092 5.76918 14.2622 6.1386 14.2622 6.52379V8.42855C14.2622 8.81375 14.1092 9.18317 13.8368 9.45554C13.5644 9.72792 13.195 9.88094 12.8098 9.88094C12.4246 9.88094 12.0552 9.72792 11.7828 9.45554C11.5104 9.18317 11.3574 8.81375 11.3574 8.42855V6.52379C11.3574 6.1386 11.5104 5.76918 11.7828 5.4968C12.0552 5.22443 12.4246 5.07141 12.8098 5.07141Z" fill="#FFFDF5"/>
<path fill-rule="evenodd" clip-rule="evenodd" d="M0.880859 7.4762C0.880859 7.20005 1.10472 6.9762 1.38086 6.9762H11.857C12.1332 6.9762 12.357 7.20005 12.357 7.4762C12.357 7.75234 12.1332 7.9762 11.857 7.9762H1.38086C1.10472 7.9762 0.880859 7.75234 0.880859 7.4762Z" fill="#FFFDF5"/>
<path fill-rule="evenodd" clip-rule="evenodd" d="M13.2617 7.4762C13.2617 7.20005 13.4856 6.9762 13.7617 6.9762H16.6189C16.895 6.9762 17.1189 7.20005 17.1189 7.4762C17.1189 7.75234 16.895 7.9762 16.6189 7.9762H13.7617C13.4856 7.9762 13.2617 7.75234 13.2617 7.4762Z" fill="#FFFDF5"/>
</svg>
