<svg width="23" height="23" viewBox="0 0 23 23" fill="none" xmlns="http://www.w3.org/2000/svg">
<path d="M22.4101 11.0069L11.9935 0.590245C11.8634 0.460904 11.6874 0.388306 11.5039 0.388306C11.3204 0.388306 11.1444 0.460904 11.0143 0.590245L0.597648 11.0069C0.48388 11.1398 0.424431 11.3106 0.431182 11.4854C0.437933 11.6602 0.510386 11.826 0.634063 11.9497C0.757739 12.0733 0.923531 12.1458 1.09831 12.1525C1.27308 12.1593 1.44397 12.0998 1.57681 11.9861L11.5004 2.06247L21.424 11.993C21.5569 12.1068 21.7278 12.1662 21.9025 12.1595C22.0773 12.1527 22.2431 12.0803 22.3668 11.9566C22.4905 11.8329 22.5629 11.6671 22.5697 11.4924C22.5764 11.3176 22.517 11.1467 22.4032 11.0139L22.4101 11.0069Z" fill="#FFFDF5"/>
<path d="M18.4448 21.2223H14.9725V14.2778H8.0281V21.2223H4.55588V11.5L3.16699 12.8889V21.2223C3.16699 21.5906 3.31332 21.9439 3.57379 22.2044C3.83426 22.4648 4.18752 22.6112 4.55588 22.6112H9.41699V15.6667H13.5837V22.6112H18.4448C18.8131 22.6112 19.1664 22.4648 19.4269 22.2044C19.6873 21.9439 19.8337 21.5906 19.8337 21.2223V12.7223L18.4448 11.3334V21.2223Z" fill="#FFFDF5"/>
</svg>
