<svg width="32" height="32" viewBox="0 0 32 32" fill="none" xmlns="http://www.w3.org/2000/svg">
<path d="M16 0.5C7.18 0.5 0 6.78 0 14.5C0 22.22 7.18 28.5 16 28.5C17.6501 28.4981 19.2922 28.2693 20.88 27.82L26.41 31.34C26.561 31.4369 26.7352 31.4913 26.9145 31.4977C27.0937 31.5041 27.2714 31.4621 27.4289 31.3762C27.5863 31.2903 27.7178 31.1637 27.8095 31.0095C27.9012 30.8554 27.9497 30.6794 27.95 30.5V23.77C29.2012 22.5697 30.1997 21.1312 30.8867 19.5392C31.5736 17.9472 31.9352 16.2338 31.95 14.5C32 6.78 24.82 0.5 16 0.5ZM26.29 22.61C26.1895 22.7032 26.1092 22.8162 26.0541 22.9417C25.9991 23.0673 25.9704 23.2029 25.97 23.34V28.68L21.59 25.89C21.4678 25.8128 21.3304 25.7629 21.1871 25.744C21.0438 25.725 20.8981 25.7373 20.76 25.78C19.2187 26.2587 17.6139 26.5014 16 26.5C8.28 26.5 2 21.12 2 14.5C2 7.88 8.28 2.5 16 2.5C23.72 2.5 30 7.88 30 14.5C29.9772 16.0351 29.6356 17.5487 28.997 18.9448C28.3583 20.3408 27.4365 21.589 26.29 22.61Z" fill="#FFFDF5"/>
<path d="M23 13.5H9C8.73478 13.5 8.48043 13.6054 8.29289 13.7929C8.10536 13.9804 8 14.2348 8 14.5C8 14.7652 8.10536 15.0196 8.29289 15.2071C8.48043 15.3946 8.73478 15.5 9 15.5H23C23.2652 15.5 23.5196 15.3946 23.7071 15.2071C23.8946 15.0196 24 14.7652 24 14.5C24 14.2348 23.8946 13.9804 23.7071 13.7929C23.5196 13.6054 23.2652 13.5 23 13.5Z" fill="#FFFDF5"/>
<path d="M19.75 18.5H12.25C11.9848 18.5 11.7304 18.6054 11.5429 18.7929C11.3554 18.9804 11.25 19.2348 11.25 19.5C11.25 19.7652 11.3554 20.0196 11.5429 20.2071C11.7304 20.3946 11.9848 20.5 12.25 20.5H19.75C20.0152 20.5 20.2696 20.3946 20.4571 20.2071C20.6446 20.0196 20.75 19.7652 20.75 19.5C20.75 19.2348 20.6446 18.9804 20.4571 18.7929C20.2696 18.6054 20.0152 18.5 19.75 18.5Z" fill="#FFFDF5"/>
<path d="M9.28027 10.5H22.7203C22.9855 10.5 23.2398 10.3946 23.4274 10.2071C23.6149 10.0196 23.7203 9.76522 23.7203 9.5C23.7203 9.23478 23.6149 8.98043 23.4274 8.79289C23.2398 8.60536 22.9855 8.5 22.7203 8.5H9.28027C9.01506 8.5 8.7607 8.60536 8.57317 8.79289C8.38563 8.98043 8.28027 9.23478 8.28027 9.5C8.28027 9.76522 8.38563 10.0196 8.57317 10.2071C8.7607 10.3946 9.01506 10.5 9.28027 10.5Z" fill="#FFFDF5"/>
</svg>
