<svg width="17" height="17" viewBox="0 0 17 17" fill="none" xmlns="http://www.w3.org/2000/svg">
<path d="M13.1309 6.27657H11.8809C11.8804 5.77731 11.6827 5.29864 11.3311 4.94561C10.9796 4.59259 10.503 4.39404 10.0059 4.39354V3.13818C10.8344 3.13918 11.6286 3.47015 12.2145 4.0585C12.8003 4.64684 13.1299 5.44452 13.1309 6.27657Z" fill="#FFFDF5"/>
<path d="M15.6309 6.27653H14.3809C14.3795 5.11165 13.9182 3.99486 13.098 3.17116C12.2778 2.34746 11.1658 1.88412 10.0059 1.88279V0.627441C11.4972 0.629103 12.927 1.22481 13.9815 2.28386C15.036 3.34291 15.6292 4.77881 15.6309 6.27653Z" fill="#FFFDF5"/>
<path d="M14.3805 16.3196H14.2743C1.99302 15.6103 0.249265 5.20344 0.0055153 2.0274C-0.0325808 1.52949 0.127817 1.03678 0.451429 0.657632C0.775041 0.278488 1.23536 0.0439654 1.73114 0.00564972C1.78072 0.00188366 1.83052 5.88504e-07 1.88052 5.88504e-07H5.17427C5.42461 -0.000242802 5.66927 0.075014 5.87654 0.216023C6.0838 0.357032 6.24414 0.557295 6.33677 0.790873L7.28677 3.13838C7.37823 3.36657 7.40093 3.61672 7.35204 3.85776C7.30315 4.09879 7.18483 4.32009 7.01177 4.49417L5.68052 5.84367C5.88762 7.03081 6.45326 8.12527 7.30072 8.97861C8.14819 9.83195 9.23649 10.4029 10.418 10.614L11.7743 9.26451C11.9502 9.09262 12.1726 8.97656 12.4138 8.9308C12.655 8.88503 12.9043 8.91159 13.1305 9.00716L15.4868 9.95495C15.7158 10.0509 15.9113 10.2132 16.0482 10.4211C16.1851 10.629 16.2573 10.8732 16.2555 11.1224V14.4366C16.2555 14.936 16.058 15.4149 15.7063 15.7681C15.3547 16.1212 14.8778 16.3196 14.3805 16.3196ZM1.88052 1.25535C1.79844 1.25511 1.71712 1.2711 1.64119 1.30241C1.56527 1.33373 1.49623 1.37975 1.43802 1.43786C1.37981 1.49597 1.33357 1.56503 1.30193 1.64109C1.2703 1.71715 1.25389 1.79872 1.25364 1.88115C1.25364 1.89872 1.25427 1.91609 1.25552 1.93324C1.54302 5.64909 3.38677 14.4366 14.343 15.0642C14.5084 15.0742 14.671 15.0178 14.795 14.9074C14.919 14.7969 14.9943 14.6416 15.0043 14.4755L15.0055 14.4366V11.1224L12.6493 10.1746L10.8555 11.9635L10.5555 11.9259C5.11802 11.2417 4.38052 5.7809 4.38052 5.72441L4.34301 5.42313L6.11802 3.6217L5.18052 1.25535H1.88052Z" fill="#FFFDF5"/>
</svg>
