<svg width="16" height="18" viewBox="0 0 16 18" fill="none" xmlns="http://www.w3.org/2000/svg">
<path d="M14.4582 8.58331C14.6092 8.58332 14.7551 8.63802 14.8689 8.73729C14.9828 8.83656 15.0568 8.97369 15.0773 9.12331L15.0832 9.20831V13.375C15.0832 14.3935 14.6906 15.3728 13.987 16.1092C13.2835 16.8457 12.3231 17.2826 11.3057 17.3291L11.1248 17.3333H4.87484C4.05817 17.3333 3.364 16.8116 3.1065 16.0833H11.1248L11.2782 16.0791C11.9422 16.0413 12.569 15.7605 13.0393 15.2903C13.5096 14.82 13.7904 14.1931 13.8282 13.5291L13.8332 13.375V9.20831C13.8332 9.04255 13.899 8.88358 14.0162 8.76637C14.1334 8.64916 14.2924 8.58331 14.4582 8.58331ZM12.3748 6.91665C12.5259 6.91665 12.6718 6.97135 12.7856 7.07062C12.8994 7.16989 12.9735 7.30702 12.994 7.45665L12.9998 7.54165V13.375C12.9999 13.8501 12.8196 14.3075 12.4954 14.6548C12.1711 15.0021 11.7272 15.2133 11.2532 15.2458L11.1248 15.25H2.7915C2.3164 15.25 1.85899 15.0697 1.51171 14.7455C1.16443 14.4213 0.953189 13.9773 0.920671 13.5033L0.916504 13.375V7.54165C0.916552 7.38329 0.976708 7.23086 1.08481 7.11515C1.19292 6.99945 1.34092 6.92909 1.4989 6.91829C1.65689 6.9075 1.81308 6.95708 1.93592 7.05701C2.05876 7.15694 2.13909 7.29977 2.16067 7.45665L2.1665 7.54165V13.375C2.1665 13.6916 2.4015 13.9533 2.7065 13.9941L2.7915 14H11.1248C11.2759 14 11.4218 13.9453 11.5356 13.846C11.6494 13.7467 11.7235 13.6096 11.744 13.46L11.7498 13.375V7.54165C11.7498 7.37589 11.8157 7.21692 11.9329 7.09971C12.0501 6.9825 12.2091 6.91665 12.3748 6.91665ZM3.1815 4.17998L6.51317 0.84998C6.61899 0.744132 6.75929 0.679776 6.90855 0.668612C7.05781 0.657448 7.20611 0.700219 7.32651 0.789147L7.3965 0.849147L10.7332 4.17998C10.8453 4.29136 10.911 4.44108 10.9172 4.59899C10.9234 4.75691 10.8695 4.9113 10.7664 5.03108C10.6633 5.15086 10.5187 5.22714 10.3616 5.24456C10.2045 5.26199 10.0467 5.21926 9.91984 5.12498L9.84984 5.06415L7.58317 2.80248V10.8791C7.58317 11.0302 7.52847 11.1761 7.4292 11.2899C7.32993 11.4037 7.1928 11.4778 7.04317 11.4983L6.95817 11.5041C6.80714 11.5041 6.66122 11.4494 6.5474 11.3502C6.43357 11.2509 6.35954 11.1138 6.339 10.9641L6.33317 10.8791V2.79665L4.06567 5.06415C3.95969 5.17009 3.81918 5.23443 3.66974 5.24544C3.52029 5.25646 3.37187 5.21341 3.2515 5.12415L3.1815 5.06415C3.07556 4.95817 3.01122 4.81766 3.00021 4.66821C2.9892 4.51877 3.03224 4.37034 3.1215 4.24998L3.1815 4.17998L6.51317 0.84998L3.1815 4.17998Z" fill="#FFFDF5"/>
</svg>
