<svg width="19" height="19" viewBox="0 0 19 19" fill="none" xmlns="http://www.w3.org/2000/svg">
<path d="M8.07184 1.80558C9.27524 1.80448 10.4519 2.16032 11.4531 2.8281C12.4542 3.49588 13.2348 4.44558 13.6961 5.55707C14.1573 6.66855 14.2786 7.89188 14.0445 9.0723C13.8104 10.2527 13.2315 11.3372 12.3809 12.1885C11.5304 13.0398 10.4464 13.6198 9.26624 13.8549C8.08603 14.0901 6.86259 13.97 5.75068 13.5097C4.63878 13.0494 3.68836 12.2697 3.01967 11.2692C2.35098 10.2687 1.99406 9.09231 1.99406 7.88891C2.00135 6.27872 2.64385 4.73647 3.78192 3.59736C4.91999 2.45825 6.46165 1.81434 8.07184 1.80558ZM8.07184 0.666687C6.64341 0.666687 5.24707 1.09026 4.05938 1.88385C2.87169 2.67744 1.946 3.8054 1.39937 5.12508C0.852739 6.44477 0.709715 7.89692 0.988386 9.29789C1.26706 10.6989 1.95491 11.9857 2.96495 12.9958C3.975 14.0058 5.26188 14.6937 6.66285 14.9724C8.06382 15.251 9.51597 15.108 10.8357 14.5614C12.1553 14.0147 13.2833 13.089 14.0769 11.9014C14.8705 10.7137 15.2941 9.31733 15.2941 7.88891C15.2941 5.97346 14.5331 4.13646 13.1787 2.78203C11.8243 1.4276 9.98729 0.666687 8.07184 0.666687Z" fill="#121212"/>
<path d="M18.4449 17.4945L14.3504 13.3723L13.5615 14.1556L17.656 18.2778C17.7074 18.3296 17.7685 18.3708 17.8359 18.3989C17.9032 18.4271 17.9755 18.4417 18.0484 18.442C18.1214 18.4423 18.1938 18.4281 18.2613 18.4004C18.3289 18.3727 18.3903 18.332 18.4421 18.2806C18.4939 18.2291 18.535 18.168 18.5632 18.1007C18.5914 18.0333 18.606 17.9611 18.6063 17.8881C18.6065 17.8151 18.5924 17.7428 18.5647 17.6752C18.537 17.6077 18.4963 17.5463 18.4449 17.4945Z" fill="#121212"/>
</svg>
