<svg width="20" height="20" viewBox="0 0 20 20" fill="none" xmlns="http://www.w3.org/2000/svg">
<path fill-rule="evenodd" clip-rule="evenodd" d="M10 19.5C15.2467 19.5 19.5 15.2467 19.5 10C19.5 4.75329 15.2467 0.5 10 0.5C4.75329 0.5 0.5 4.75329 0.5 10C0.5 15.2467 4.75329 19.5 10 19.5ZM10 20C15.5228 20 20 15.5228 20 10C20 4.47715 15.5228 0 10 0C4.47715 0 0 4.47715 0 10C0 15.5228 4.47715 20 10 20Z" fill="#514A7E"/>
<path fill-rule="evenodd" clip-rule="evenodd" d="M8.2324 6.4144L9.82339 4.82341C9.92102 4.72577 10.0793 4.72577 10.1769 4.82341L11.7679 6.4144C11.8656 6.51203 11.8656 6.67032 11.7679 6.76795C11.6703 6.86558 11.512 6.86558 11.4144 6.76795L10.2502 5.60374L10.2502 14.2197L9.75017 14.2197L9.75017 5.60374L8.58596 6.76795C8.48833 6.86558 8.33003 6.86558 8.2324 6.76795C8.13477 6.67032 8.13477 6.51203 8.2324 6.4144Z" fill="#514A7E"/>
</svg>
