<svg width="18" height="18" viewBox="0 0 18 18" fill="none" xmlns="http://www.w3.org/2000/svg">
<path d="M9.00022 0.111328C7.24217 0.111328 5.52359 0.632652 4.06182 1.60938C2.60005 2.5861 1.46074 3.97435 0.787959 5.59859C0.11518 7.22282 -0.0608501 9.01008 0.28213 10.7344C0.625109 12.4586 1.47169 14.0425 2.71483 15.2856C3.95796 16.5287 5.54181 17.3753 7.26609 17.7183C8.99036 18.0613 10.7776 17.8853 12.4019 17.2125C14.0261 16.5397 15.4143 15.4004 16.3911 13.9386C17.3678 12.4768 17.8891 10.7583 17.8891 9.00022C17.8891 6.64274 16.9526 4.38181 15.2856 2.71482C13.6186 1.04783 11.3577 0.111328 9.00022 0.111328ZM9.00022 16.778C7.46192 16.778 5.95817 16.3218 4.67912 15.4672C3.40007 14.6126 2.40317 13.3978 1.81449 11.9766C1.22581 10.5554 1.07178 8.99159 1.37189 7.48285C1.672 5.97411 2.41276 4.58824 3.5005 3.5005C4.58824 2.41276 5.97411 1.67199 7.48285 1.37189C8.99159 1.07178 10.5554 1.22581 11.9766 1.81449C13.3979 2.40317 14.6126 3.40007 15.4672 4.67912C16.3218 5.95816 16.778 7.46192 16.778 9.00022C16.778 11.063 15.9586 13.0413 14.4999 14.4999C13.0413 15.9586 11.063 16.778 9.00022 16.778Z" fill="#514A7E"/>
<path d="M5.05056 7.82769C5.66421 7.82769 6.16167 7.33023 6.16167 6.71658C6.16167 6.10293 5.66421 5.60547 5.05056 5.60547C4.43691 5.60547 3.93945 6.10293 3.93945 6.71658C3.93945 7.33023 4.43691 7.82769 5.05056 7.82769Z" fill="#514A7E"/>
<path d="M12.9168 7.82769C13.5304 7.82769 14.0279 7.33023 14.0279 6.71658C14.0279 6.10293 13.5304 5.60547 12.9168 5.60547C12.3031 5.60547 11.8057 6.10293 11.8057 6.71658C11.8057 7.33023 12.3031 7.82769 12.9168 7.82769Z" fill="#514A7E"/>
<path d="M9.07229 14.6722C10.0915 14.6735 11.0848 14.3516 11.9094 13.7526C12.734 13.1536 13.3473 12.3085 13.6612 11.3389H4.4834C4.79726 12.3085 5.4106 13.1536 6.23519 13.7526C7.05978 14.3516 8.05311 14.6735 9.07229 14.6722Z" fill="#514A7E"/>
</svg>
