<svg width="17" height="15" viewBox="0 0 17 15" fill="none" xmlns="http://www.w3.org/2000/svg">
<path fill-rule="evenodd" clip-rule="evenodd" d="M12.2189 14.9375C12.3598 14.9375 12.495 14.8815 12.5946 14.7819C12.6942 14.6822 12.7502 14.5471 12.7502 14.4062V1.87616L16.0928 5.21985C16.1926 5.3196 16.3279 5.37564 16.4689 5.37564C16.61 5.37564 16.7453 5.3196 16.8451 5.21985C16.9448 5.12009 17.0009 4.9848 17.0009 4.84372C17.0009 4.70265 16.9448 4.56735 16.8451 4.4676L12.5951 0.217598C12.5457 0.168125 12.4871 0.128873 12.4225 0.102091C12.358 0.0753092 12.2888 0.0615234 12.2189 0.0615234C12.1491 0.0615234 12.0799 0.0753092 12.0153 0.102091C11.9508 0.128873 11.8922 0.168125 11.8428 0.217598L7.59281 4.4676C7.49305 4.56735 7.43701 4.70265 7.43701 4.84372C7.43701 4.9848 7.49305 5.12009 7.59281 5.21985C7.69256 5.3196 7.82786 5.37564 7.96893 5.37564C8.11001 5.37564 8.2453 5.3196 8.34506 5.21985L11.6877 1.87616V14.4062C11.6877 14.5471 11.7437 14.6822 11.8433 14.7819C11.9429 14.8815 12.078 14.9375 12.2189 14.9375ZM4.78143 0.0624731C4.92233 0.0624731 5.05746 0.118444 5.15708 0.218073C5.25671 0.317701 5.31268 0.452827 5.31268 0.593723V13.1238L8.65531 9.7801C8.75506 9.68034 8.89036 9.6243 9.03143 9.6243C9.17251 9.6243 9.3078 9.68034 9.40756 9.7801C9.50731 9.87985 9.56335 10.0151 9.56335 10.1562C9.56335 10.2973 9.50731 10.4326 9.40756 10.5323L5.15756 14.7823C5.10821 14.8318 5.04959 14.8711 4.98504 14.8979C4.9205 14.9246 4.85131 14.9384 4.78143 14.9384C4.71156 14.9384 4.64236 14.9246 4.57782 14.8979C4.51328 14.8711 4.45466 14.8318 4.40531 14.7823L0.155308 10.5323C0.0555532 10.4326 -0.000488285 10.2973 -0.000488281 10.1562C-0.000488278 10.0151 0.0555533 9.87985 0.155308 9.7801C0.255062 9.68034 0.390359 9.6243 0.531433 9.6243C0.672507 9.6243 0.807803 9.68034 0.907558 9.7801L4.25018 13.1238V0.593723C4.25018 0.452827 4.30615 0.317701 4.40578 0.218073C4.50541 0.118444 4.64054 0.0624731 4.78143 0.0624731Z" fill="#FFFDF5"/>
</svg>
