<svg width="16" height="18" viewBox="0 0 16 18" fill="none" xmlns="http://www.w3.org/2000/svg">
<path d="M8.00022 8.44447C8.76937 8.44447 9.52124 8.21639 10.1608 7.78907C10.8003 7.36175 11.2987 6.75439 11.5931 6.04379C11.8874 5.33319 11.9644 4.55126 11.8144 3.79689C11.6643 3.04252 11.2939 2.34959 10.7501 1.80572C10.2062 1.26185 9.51327 0.891466 8.7589 0.741413C8.00453 0.591359 7.22261 0.668372 6.512 0.962713C5.8014 1.25705 5.19404 1.7555 4.76672 2.39503C4.33941 3.03455 4.11133 3.78643 4.11133 4.55558C4.11133 5.58698 4.52105 6.57613 5.25036 7.30544C5.97967 8.03475 6.96882 8.44447 8.00022 8.44447ZM8.00022 1.7778C8.54961 1.7778 9.08666 1.94071 9.54347 2.24594C10.0003 2.55117 10.3563 2.985 10.5665 3.49257C10.7768 4.00014 10.8318 4.55866 10.7246 5.0975C10.6174 5.63633 10.3529 6.13128 9.9644 6.51976C9.57592 6.90824 9.08097 7.1728 8.54214 7.27998C8.0033 7.38716 7.44478 7.33215 6.93721 7.12191C6.42963 6.91167 5.99581 6.55563 5.69058 6.09883C5.38535 5.64202 5.22244 5.10497 5.22244 4.55558C5.22244 3.81887 5.5151 3.11233 6.03603 2.59139C6.55697 2.07046 7.2635 1.7778 8.00022 1.7778Z" fill="#121212"/>
<path d="M14.9273 12.5389C14.0364 11.5972 12.9628 10.8472 11.7721 10.3346C10.5814 9.82194 9.29869 9.55756 8.00235 9.55756C6.70601 9.55756 5.42328 9.82194 4.2326 10.3346C3.04192 10.8472 1.96829 11.5972 1.07735 12.5389C0.884185 12.7452 0.776907 13.0174 0.777345 13.3V16.2222C0.777345 16.5169 0.894408 16.7995 1.10278 17.0079C1.31116 17.2163 1.59377 17.3333 1.88846 17.3333H14.1107C14.4054 17.3333 14.688 17.2163 14.8964 17.0079C15.1047 16.7995 15.2218 16.5169 15.2218 16.2222V13.3C15.2237 13.0181 15.1185 12.7461 14.9273 12.5389ZM14.1107 16.2222H1.88846V13.2944C2.6758 12.4654 3.62362 11.8052 4.67421 11.354C5.7248 10.9029 6.85621 10.6703 7.99957 10.6703C9.14293 10.6703 10.2743 10.9029 11.3249 11.354C12.3755 11.8052 13.3233 12.4654 14.1107 13.2944V16.2222Z" fill="#121212"/>
</svg>
