<svg width="28" height="28" viewBox="0 0 28 28" fill="none" xmlns="http://www.w3.org/2000/svg">
<path d="M26.3337 11.2503L24.0003 10.5003L23.5003 9.25033L24.667 7.08366C24.917 6.58366 24.8337 5.91699 24.417 5.50033L22.417 3.50033C22.0003 3.08366 21.3337 3.00033 20.8337 3.25033L18.667 4.41699L17.417 3.91699L16.667 1.58366C16.5003 1.08366 16.0003 0.666992 15.417 0.666992H12.5837C12.0003 0.666992 11.5003 1.08366 11.417 1.66699L10.667 4.00033C10.167 4.08366 9.75033 4.25033 9.33366 4.50033L7.16699 3.33366C6.66699 3.08366 6.00033 3.16699 5.58366 3.58366L3.58366 5.58366C3.16699 6.00033 3.08366 6.66699 3.33366 7.16699L4.41699 9.25033C4.25033 9.66699 4.08366 10.167 3.91699 10.5837L1.58366 11.3337C1.08366 11.5003 0.666992 12.0003 0.666992 12.5837V15.417C0.666992 16.0003 1.08366 16.5003 1.66699 16.667L4.00033 17.417L4.50033 18.667L3.33366 20.8337C3.08366 21.3337 3.16699 22.0003 3.58366 22.417L5.58366 24.417C6.00033 24.8337 6.66699 24.917 7.16699 24.667L9.33366 23.5003L10.5837 24.0003L11.3337 26.417C11.5003 26.917 12.0003 27.3337 12.5837 27.3337H15.417C16.0003 27.3337 16.5003 26.917 16.667 26.417L17.417 24.0003L18.667 23.5003L20.8337 24.667C21.3337 24.917 22.0003 24.8337 22.417 24.417L24.417 22.417C24.8337 22.0003 24.917 21.3337 24.667 20.8337L23.5003 18.667L24.0003 17.417L26.417 16.667C26.917 16.5003 27.3337 16.0003 27.3337 15.417V12.5837C27.3337 12.0003 26.917 11.417 26.3337 11.2503ZM25.667 15.167L22.667 16.0837L22.5837 16.5003L21.8337 18.2503L21.5837 18.667L23.0837 21.417L21.417 23.0837L18.667 21.5837L18.2503 21.8337C17.667 22.167 17.0837 22.417 16.5003 22.5837L16.0837 22.667L15.167 25.667H12.8337L11.917 22.667L11.5003 22.5837L9.75033 21.8337L9.33366 21.5837L6.58366 23.0837L4.91699 21.417L6.41699 18.667L6.16699 18.2503C5.83366 17.667 5.58366 17.0837 5.41699 16.5003L5.33366 16.0837L2.33366 15.167V12.8337L5.16699 12.0003L5.33366 11.5837C5.50033 10.917 5.75033 10.3337 6.08366 9.75033L6.33366 9.33366L4.91699 6.58366L6.58366 4.91699L9.25033 6.41699L9.66699 6.16699C10.2503 5.83366 10.8337 5.58366 11.5003 5.41699L11.917 5.25033L12.8337 2.33366H15.167L16.0837 5.25033L16.5003 5.41699C17.0837 5.58366 17.667 5.83366 18.2503 6.16699L18.667 6.41699L21.417 4.91699L23.0837 6.58366L21.5837 9.33366L21.8337 9.75033C22.167 10.3337 22.417 10.917 22.5837 11.5003L22.667 11.917L25.667 12.8337V15.167Z" fill="#514A7E"/>
</svg>
